<svg xmlns="http://www.w3.org/2000/svg" viewBox="0 0 48 48">
  <path d="M24 4C12.972 4 4 12.972 4 24C4 35.028 12.972 44 24 44C28.073 44 32.202125 42.816953 35.328125 40.751953C35.879125 40.386953 36.1285 39.702359 35.9375 39.068359C35.7465 38.434359 35.162 38 34.5 38L33 38C25.28 38 19 31.72 19 24C19 16.28 25.28 10 33 10L34.5 10C35.162 10 35.744547 9.5656406 35.935547 8.9316406C36.126547 8.2976406 35.878172 7.6130469 35.326172 7.2480469C32.201172 5.1830469 28.073 4 24 4 z M 35.5 16C34.995 16 34.533594 16.284328 34.308594 16.736328L32.423828 20.501953L28.201172 21.107422C27.697172 21.179422 27.278094 21.532578 27.121094 22.017578C26.964094 22.502578 27.098797 23.035672 27.466797 23.388672L30.509766 26.3125L29.792969 30.4375C29.705969 30.9365 29.907406 31.443188 30.316406 31.742188C30.726406 32.041188 31.26875 32.082609 31.71875 31.849609L35.5 29.890625L39.28125 31.849609C39.47525 31.950609 39.684531 32 39.894531 32C40.172531 32 40.450547 31.913187 40.685547 31.742188C41.094547 31.443188 41.297938 30.9365 41.210938 30.4375L40.492188 26.3125L43.535156 23.388672C43.903156 23.035672 44.036859 22.502578 43.880859 22.017578C43.724859 21.532578 43.304781 21.179422 42.800781 21.107422L38.578125 20.501953L36.693359 16.736328C36.466359 16.284328 36.005 16 35.5 16 z" fill="#E4E4E4" />
</svg>